# xmcd
#
# Track frame offsets:
#  182
#  15680
#  29702
#  44507
#
# Disc length: 976 seconds
#
# Revision: 0
# Processed by: cddbd v1.5.2PL0 Copyright (c) Steve Scherf et al.
# Submitted via: Collectorz.com_Music_Collector 6.11
#
DISCID=3003ce04
DTITLE=21st Century Girls - 21st Century Girls
DYEAR=2000
DGENRE=CD Singles
TTITLE0=21st Century Girls (original version)
TTITLE1=If You'r Mad Enough
TTITLE2=21st Century Girls (acoustic version)
TTITLE3=21st Century Girls (rock mix)
EXTD=
EXTT0=
EXTT1=
EXTT2=
EXTT3=
PLAYORDER=
